<?xml version="1.0" encoding="UTF-8"?>
<svg id="Layer_2" data-name="Layer 2" xmlns="http://www.w3.org/2000/svg" viewBox="0 0 1492.87 704.24">
  <defs>
    <linearGradient id="blue-gradient" x1="0%" y1="0%" x2="100%" y2="100%">
      <stop offset="0%" style="stop-color:#3B82F6;stop-opacity:1" />
      <stop offset="100%" style="stop-color:#06B6D4;stop-opacity:1" />
    </linearGradient>
    <style>
      .cls-1 {
        fill: url(#blue-gradient);
      }
    </style>
  </defs>
  <g id="Layer_1-2" data-name="Layer 1">
    <g>
      <path class="cls-1" d="M1166.67,3.47c15.5-7.55,36.27-2.52,45.43,12.42,11.27,17.27,5.17,44.01-14.03,52.79-15.9,8.57-38.17,2.78-46.96-13.22-11.16-17.45-3.91-43.96,15.55-51.99Z"/>
      <path class="cls-1" d="M636.44,53.61c24.12-25.35,61.12-37.75,95.62-31.83,21.76,3.56,41.76,14.48,58.36,28.78,16.81-16.01,38.6-26.93,61.73-29.74,30.84-4.93,63.12,5.33,86.68,25.49,24.25,20.59,38.92,52.12,38.74,83.95,.67,30.63-13.6,60.5-35.47,81.52,1.45,17.48-12.45,33.81-30.06,34.77-2.06,15.42-14.16,29.31-30.44,29.58-1.53,15.18-14.59,27.06-29.61,28.32-3.8,11.19-10.6,23.48-23.48,25.7-16.6,5.09-29.71-8.41-41.6-17.56-9.02,11.75-23.05,23.72-39,18.61-12.05-2.6-18.87-14.13-20.37-25.62-8.51-1.39-18.07-3.43-23.4-10.84-4.2-5.09-5.76-11.54-6.61-17.88-16.36-.54-29.18-14.03-29.53-30.25-9.8-1.61-20.59-5.09-25.65-14.4-4.85-6.83-4.04-15.61-2.65-23.4-17.7-18.31-30.76-41.98-33.01-67.62-3.88-31.64,7.23-64.92,29.74-87.57Zm-8.94,63.02c-4.23,27.01,5.41,55.23,24.23,74.85,10.04-13.28,28.99-20.45,44.36-11.99,10.01,4.63,13.71,15.82,15.18,25.94,15.02-.46,28.16,12.66,27.84,27.68,7.87,1.63,16.28,3.51,22.43,9.13,5.59,5.09,6.51,13.04,8.11,20,17.24-.62,30.89,16.06,27.01,32.9,6.96,4.98,13.2,11,20.67,15.26,6.13,2.2,13.17-2.62,13.41-9.1-1.45-4.98-5.78-8.33-9.1-12.02-17.72-17.08-35.28-34.35-52.9-51.53-3.13-3.51-7.5-8.75-4.2-13.55,2.41-5.46,10.47-5.62,14.19-1.45,21.71,19.22,41.82,40.21,63.31,59.64,7.87,8.22,23.93-1.95,18.79-12.56-18.69-21.58-40.9-40.02-60.29-61.01-7.55-6-.54-19.65,8.7-15.39,22.84,19.35,42.65,42.11,65.48,61.52,9.45,6.93,22.75-6.85,15.79-16.22-16.95-17.72-34.8-34.61-52.44-51.67-4.23-4.58-10.6-9.66-8.49-16.7,1.66-6.4,10.79-7.66,14.72-2.57,19.68,18.61,38.87,37.72,58.71,56.14,6.51,7.74,20.27,1.61,20-8.08,.35-6.64-5.46-11.14-9.53-15.53-31.05-30.76-62.35-61.33-94.39-91.1-14.99,12.21-28.14,26.53-42.94,38.98-9.99,8.57-25.08,10.15-36.65,3.88-16.49-8-20.32-32.85-7.71-45.91,13.97-14.75,28.94-28.56,42.65-43.56-17.67-13.06-38.95-22.3-61.28-21.58-41.87-.05-80.28,34.24-85.66,75.6Zm49.34,79.24c-6.85,4.79-13.2,10.73-17.8,17.75-5.38,7.92,6.13,17.88,13.41,12.56,6.61-5.43,13.63-11.03,18.18-18.36,3.8-8.19-6.45-16.25-13.79-11.94Zm11.83,46.53c-6.69,7.42,4.12,19.78,12.39,14.78,8.16-6.26,15.37-13.89,21.09-22.46-2.3-5.22-5.54-11.16-11.97-11.62-8.97,3.99-15.04,12.26-21.52,19.3Zm46.74,11.78c-7.04,6.08-13.6,12.93-18.77,20.67-2.46,8.16,8.3,15.9,14.99,10.15,6.53-5.76,12.53-12.23,17.94-19.06,4.68-8.33-6.96-18.69-14.16-11.75Zm29.42,27.09c-6.02,5.62-12.07,11.38-17.03,17.99-5.7,7.2,5.97,17.83,12.85,12.39,6.93-5.35,13.73-11.56,17.88-19.38,3.35-7.42-7.42-16.28-13.71-11Z"/>
      <path class="cls-1" d="M93.35,30.54c18.34-6.61,40.53,3.48,46.29,22.38,7.84,20.13-6.48,45.86-28.62,47.3-17.59,2.97-35.87-8.89-39.83-26.34-5.25-17.37,4.6-37.85,22.17-43.34Z"/>
      <path class="cls-1" d="M178.74,29.87c18.1-6.72,40.26,4.28,45.67,22.84,7.47,20.64-8.38,45.94-30.6,47.09-18.82,2.68-36.97-12.74-38.63-31.37-2.09-16.25,7.71-33.46,23.56-38.55Z"/>
      <path class="cls-1" d="M377.03,48.74c17.67-4.9,37.67,6,42.83,23.64,7.58,20.64-8.08,46.31-30.46,47.52-19.22,2.33-37.64-13.3-38.68-32.55-1.82-16.95,9.61-34.48,26.32-38.6Z"/>
      <path class="cls-1" d="M460.02,49.49c17.45-6.13,38.5,3.72,44.71,21.23,7.82,18.9-3.61,44.09-24.33,48.11-17.72,5.09-38.33-5.65-43.29-23.61-6.02-18.23,4.26-40.13,22.92-45.72Z"/>
      <path class="cls-1" d="M1093.99,160.8c20.83-28.11,54.91-46.79,90.22-46.37,36.03-1.34,71.93,17.03,92.2,46.79,26.74,38.31,33.52,86.52,34.21,132.19-.08,38.84-5.97,80.52-30.6,111.98-17.83,23.26-47.04,33.84-74.98,38.76-62.62,9.85-126.19,8.03-189.37,8.33-150.82-.16-301.62,.27-452.44-.11-46.85,.21-94.28-7.92-136.5-28.8-46.39,22.54-98.78,30.06-149.97,28.08-24.82-1.71-51.93-5.33-71.05-22.84-15.93-14.64-21.26-36.7-24.74-57.23-7.55,15.66-17.72,31.11-33.54,39.38-23.53,12.47-51.85,11.97-77.15,5.89-26.13-6.26-50.68-24.04-59.62-50.11-12.26-36.51-4.52-78.76,18.77-109.28,23.56-31.56,59.16-51.16,94.9-65.94,16.3-6.85,33.36-11.56,50.25-16.62,2.92-10.39-1.95-22.97,4.02-32.69,10.68-10.95,27.63-11.91,41.98-10.95,5.73,.37,14.54,2.38,14.19,9.66,.35,65.16,0,130.32,.37,195.48,.11,14.13,3.75,30.04,16.22,38.44,16.09,10.68,36.33,8.99,54.75,9.1,18.31,.32,36.43-2.46,54.42-5.57-25.62-23.83-43.02-57.45-43.26-92.89-2.01-34.85,9.05-71.5,34.48-96.19,39.78-36.92,106.92-39.11,148.95-4.77,21.5,17.51,33.3,44.25,37.56,71.16,5.65,33.86-1.66,70.06-21.36,98.35-5.46,8.65-12.82,15.82-19.33,23.66,20.72,4.15,41.82,6.24,62.96,6.4,63.31,.96,126.6,.24,189.93,.7,47.3-1.34,94.61,.54,141.94-.48,39.22,1.31,78.49-.64,117.71,.46,62.64-1.63,125.79,2.28,187.95-7.5,15.79-3.03,33.68-6.16,44.17-19.68,11.86-15.85,14.94-36.65,14.59-55.98-6.56,8.49-11.91,18.1-20.53,24.74-21.82,17.83-51.72,21.84-79,19.03-24.49-3-49.31-12.66-65.94-31.54-16.2-18.82-23.5-44.06-23.5-68.61-.29-29.88,7.79-60.53,26.15-84.46Zm28.03,61.92c-4.1,16.92-2.3,36.97,10.71,49.77,15.15,15.9,39,18.39,59.75,15.93,22.01-3.27,43.82-10.73,62.16-23.48-4.26-21.63-8.67-44.22-22.06-62.35-14.75-20.48-42.86-29.85-67.01-22.75-20.59,5.49-38.23,22.03-43.56,42.89ZM71.61,281.35c-9.77,11.94-17,28.48-11.67,43.9,4.42,12.69,16.36,21.15,28.97,24.52,29.37,8.03,61.3,.43,86.49-15.85-1.02-36.19-.27-72.36-.24-108.58-37.4,11.7-76.88,25.89-103.55,56Zm314.23-39.19c-18.42,17.72-22.97,47.97-10.49,70.3,11.59,20.64,32.42,33.7,52.01,45.88,21.58-10.71,44.76-23.24,55.52-46.02,10.68-22.57,6.61-51.48-10.98-69.44-22.33-22.7-63.5-23.53-86.07-.72Z"/>
      <path class="cls-1" d="M1423.61,217.64c9.05-3.27,20.88-3.59,27.6,4.42,5.76,7.47,8.25,16.81,11.73,25.46,20.05,52.98,32.82,109.73,29.37,166.64-3.37,46.15-19.01,93.7-53.19,126.28-34.56,34.16-90.22,42.19-134.28,23.21-8.03-3.8-17.51-8.51-19.35-18.1-1.07-12.66,2.28-25.51,7.82-36.84,2.49-3.94,5.22-10.28,11.03-8.25,22.81,5.92,47.68,9.18,70.22,.27,31-11.06,52.34-39.97,61.28-70.75,7.28-24.33,5.49-50.49-1.31-74.72-8.78-37.18-26.98-71.13-39.16-107.16-1.55-15.79,15.53-25.38,28.27-30.46Z"/>
      <path class="cls-1" d="M120.09,544.29c8.19-3.99,19.33,2.03,18.42,11.67,.29,11.7-17.35,16.2-23.48,6.61-4.77-6.02-1.47-15.15,5.06-18.28Z"/>
      <path class="cls-1" d="M175.51,553.68c11.83-9.26,28.8-8.59,41.55-1.5-2.2,5.01-4.26,10.09-6.21,15.23-6.02-2.46-14.19-5.62-19.94-1.04-4.82,3.48-3.21,9.88-3.59,14.96,7.9-.08,15.77-.19,23.66-.54,.05,5.62,.05,11.27-.05,16.95-7.82-.27-15.63-.32-23.42-.21-.27,22.51,0,45.03-.21,67.54-6.59-.16-13.14-.21-19.7-.29,.37-22.49,.19-44.97,.13-67.43-4.85,.03-9.69,.03-14.54-.03,0-4.98-.19-9.96,.21-14.88,4.26-2.33,9.72-.62,14.43-1.15-.27-9.56-.29-20.85,7.68-27.6Z"/>
      <path class="cls-1" d="M.27,554.83c20.59,.83,41.63-2.09,61.87,2.41,17.35,3.67,30.63,20.75,28.64,38.63-.56,13.92-9.45,26.32-21.92,32.18,8.86,12.02,17.19,24.39,25.49,36.78-7.71,0-15.42-.05-23.13-.08-7.58-11-14.46-22.46-21.98-33.49-9.4,.56-18.77,.35-28.16,.11-.05,11.14,.03,22.25-.11,33.38-6.99-.13-13.97-.16-20.96-.08,.7-36.59,.21-73.22,.27-109.84Zm20.85,16.65c.03,14.19,.05,28.35-.13,42.54,12.1-.51,24.63,1.42,36.49-1.69,15.18-4.79,17.4-28.75,3.56-36.38-12.13-6.99-26.64-3.88-39.91-4.47Z"/>
      <path class="cls-1" d="M468.75,554.94c30.92-.32,61.87,.05,92.79-.21,.05,5.97,.11,11.97,.08,17.96-12.13-.11-24.25-.19-36.38,.19,.05,30.54,1.23,61.09,1.07,91.66-6.96,.11-13.89,.08-20.83,.08-.03-30.68,.11-61.36-.27-92.04-12.15,.16-24.33,.08-36.49,.08,.03-5.92,.03-11.83,.03-17.72Z"/>
      <path class="cls-1" d="M333.45,589.8c13.89-10.39,32.66-11.38,49.1-7.87,12.39,3,20.64,14.94,21.34,27.33,.94,18.36-.32,36.76,.4,55.15-6.59-.03-13.14,0-19.7-.03,0-2.38-.03-7.17-.03-9.56-10.9,13.01-32.1,13.84-45.94,5.38-14.19-8.78-12.53-33.38,2.68-40.21,13.52-6.21,28.86-3.75,43.29-4.5-.46-5.84-1.31-12.77-7.15-15.74-12.1-6.83-26.69-1.77-38.04,4.28-1.71-4.87-3.67-9.66-5.94-14.24Zm22.17,40.18c-7.39,1.74-10.92,12.56-4.31,17.4,13.2,10.39,37.53-.67,33.11-18.85-9.58,.54-19.3-.24-28.8,1.45Z"/>
      <path class="cls-1" d="M115.81,582.27c5.62-2.84,13.33-.56,19.78-1.15-.35,27.89,.11,55.79,.16,83.68-6.77-.11-13.52-.08-20.27,.03,.05-27.52,.11-55.04,.32-82.56Z"/>
      <path class="cls-1" d="M240.16,583.8c15.42-8.03,36.3-5.25,47.01,9.18-.13-4.07-.21-8.14-.27-12.15,6.48-.05,12.96-.13,19.44-.08-.54,38.31-.11,76.59-.7,114.9-6.48-.08-12.93-.03-19.38,.03,.19-13.63-.11-27.25,.16-40.88-14.19,14.27-38.66,14.62-53.97,2.01-22.54-18.42-19.01-60.21,7.71-73Zm13.68,14.38c-18.28,7.07-21.2,35.68-5.17,46.61,12.21,8.49,31.08,3.03,36.43-10.95,3.27-10.52,1.74-23.53-6.99-31.08-6.37-6.05-16.17-7.63-24.28-4.58Z"/>
      <path class="cls-1" d="M582.95,586.37c17.05-11.14,41.82-8.78,55.47,6.67,8.91,9.61,10.76,23.34,9.93,35.95-21.58,.35-43.18,.35-64.76-.08,4.18,22.43,35.52,25.97,49.74,11.06,3.69,3.96,7.25,8.03,10.6,12.31-17.43,17.61-48.56,18.71-67.03,2.17-19.41-17.88-17.13-54.42,6.05-68.08Zm17.53,10.23c-9.08,2.14-15.71,10.25-17.13,19.3,15.5,.43,31.03-.08,46.55,.05-1.04-13.89-16.38-23.88-29.42-19.35Z"/>
      <path class="cls-1" d="M668.43,588.86c15.87-9.88,36.92-12.98,54.29-5.27,10.87,4.82,16.41,17,16.46,28.43,.19,17.59-.11,35.2,.24,52.79-6.48-.08-12.96-.16-19.44-.62,.21-2.14,.62-6.48,.83-8.62-12.8,12.69-34.91,14.38-49.2,3.24-12.37-9.69-10.68-31.99,3.69-38.95,13.73-6.48,29.39-3.67,44.04-4.44,.51-6.56-1.63-14.3-8.38-16.73-11.75-5.01-25.43-1.26-35.77,5.46-2.11-5.09-6.45-9.69-6.77-15.29Zm16.6,57.1c6.69,7.92,19.54,6.1,27.57,1.18,6.64-3.8,6.88-11.94,6.34-18.63-8.99,.37-18.07-.32-26.98,.94-7.23,.99-12.37,10.65-6.93,16.52Z"/>
      <path class="cls-1" d="M767.18,580.75c6.48-.05,12.98-.21,19.49-.51,.03,2.89,.08,8.7,.11,11.62,14.13-17.08,42.46-16.17,55.95,1.2,12.13-15.93,38.09-18.69,53.49-6.02,6.88,6.4,10.12,16.06,10.33,25.32,.46,17.43,.13,34.91,.27,52.36-6.85-.05-13.71,0-20.51-.35,.21-16.68,.54-33.38-.05-50.03,.08-10.52-10.31-19.11-20.61-17.35-10.6,.27-18.95,10.15-19.11,20.45-.29,15.79,.11,31.59-.03,47.38-6.8-.05-13.57-.05-20.35-.11,.29-15.74,.24-31.51,.19-47.22,.32-8.73-4.87-18.58-14.22-19.81-12.07-2.68-24.31,7.42-24.6,19.62-.56,15.79-.13,31.59-.05,47.41-6.69-.11-13.36-.13-20.05-.19,.27-27.92,.24-55.87-.24-83.79Z"/>
      <path class="cls-1" d="M1371.06,667.94c37.96-10.79,75.65-22.62,113.67-33.25,5.94,8.97,1.66,19.94-2.86,28.54-2.89,5.09-9.21,5.94-14.22,7.74-37.72,10.52-74.77,23.37-112.65,33.28-6.64-13.01,.72-33.46,16.06-36.3Z"/>
    </g>
  </g>
</svg>