<?xml version="1.0" encoding="utf-8"?>
<!-- Generator: Adobe Illustrator 26.4.1, SVG Export Plug-In . SVG Version: 6.00 Build 0)  -->
<svg version="1.1" id="Layer_2_00000051366105740236773700000009128427268399195013_"
	 xmlns="http://www.w3.org/2000/svg" xmlns:xlink="http://www.w3.org/1999/xlink" x="0px" y="0px" viewBox="0 0 1492.9 704.2"
	 style="enable-background:new 0 0 1492.9 704.2;" xml:space="preserve">
<style type="text/css">
	.st0{fill:#FAF9F6;}
</style>
<path class="st0" d="M1166.7,3.5c15.5-7.6,36.3-2.5,45.4,12.4c11.3,17.3,5.2,44-14,52.8c-15.9,8.6-38.2,2.8-47-13.2
	C1140,38,1147.2,11.5,1166.7,3.5L1166.7,3.5L1166.7,3.5z"/>
<path class="st0" d="M93.3,30.5c18.3-6.6,40.5,3.5,46.3,22.4c7.8,20.1-6.5,45.9-28.6,47.3c-17.6,3-35.9-8.9-39.8-26.3
	C65.9,56.5,75.8,36,93.3,30.5L93.3,30.5L93.3,30.5z"/>
<path class="st0" d="M178.7,29.9c18.1-6.7,40.3,4.3,45.7,22.8c7.5,20.6-8.4,45.9-30.6,47.1c-18.8,2.7-37-12.7-38.6-31.4
	C153.1,52.2,162.9,35,178.7,29.9L178.7,29.9L178.7,29.9z"/>
<path class="st0" d="M377,48.7c17.7-4.9,37.7,6,42.8,23.6c7.6,20.6-8.1,46.3-30.5,47.5c-19.2,2.3-37.6-13.3-38.7-32.6
	C348.9,70.4,360.3,52.9,377,48.7L377,48.7L377,48.7z"/>
<path class="st0" d="M460,49.5c17.5-6.1,38.5,3.7,44.7,21.2c7.8,18.9-3.6,44.1-24.3,48.1c-17.7,5.1-38.3-5.7-43.3-23.6
	C431.1,77,441.4,55.1,460,49.5L460,49.5L460,49.5z"/>
<path class="st0" d="M783.2,299.9c2.2,2.4,3.3,5.3,3.3,8.6c0,3.3-1.2,6.2-3.5,8.6c-4.1,4.5-8.3,8.7-12.8,12.7
	c-2.2,1.5-4.5,2.7-7,3.6c-2.6,0.2-5.1-0.3-7.5-1.6c-2.3-1.2-4.1-3.1-5.4-5.4c-1.2-2.1-1.7-4.3-1.5-6.7s1-4.5,2.6-6.3
	c4.5-5.3,9.5-10.2,14.8-14.8c1.2-1,2.6-1.8,4.1-2.3c1.5-0.5,3.1-0.7,4.7-0.5c1.6,0.1,3.1,0.5,4.5,1.2
	C781,297.7,782.2,298.7,783.2,299.9L783.2,299.9z M701.3,219.3c-2.4-5.1-6.5-7.8-12.1-7.9c-2.7,0.9-5.3,2.1-7.7,3.8
	c-4.7,4.2-9.2,8.6-13.4,13.3c-1.1,1.1-2,2.5-2.6,4c-0.6,1.5-0.9,3.1-0.8,4.7s0.4,3.2,1.1,4.7s1.6,2.8,2.8,3.9
	c2.3,2.4,5.2,3.6,8.5,3.7s6.2-1,8.7-3.3c4.8-4.3,9.3-8.9,13.6-13.6c1.8-1.8,2.8-3.9,3.2-6.4C702.8,223.8,702.4,221.5,701.3,219.3
	L701.3,219.3z M726.5,243.3c-2.5-2.2-5.4-3.4-8.8-3.4s-6.3,1.2-8.7,3.5c-4.5,4.1-8.7,8.3-12.7,12.8c-1.4,2.1-2.6,4.3-3.5,6.6
	c-0.3,2.7,0.2,5.3,1.5,7.7s3.2,4.2,5.7,5.4c2.2,1.2,4.6,1.7,7.1,1.4c2.5-0.3,4.7-1.4,6.6-3.1c4.7-4.2,9.2-8.7,13.4-13.3
	c1.2-1.2,2.1-2.5,2.7-4.1c0.6-1.6,0.9-3.2,0.8-4.8s-0.4-3.3-1.2-4.8C728.7,245.7,727.7,244.4,726.5,243.3L726.5,243.3z M758.7,282.2
	c-0.5-6.9-2.7-11-7.7-13.3c-2.3-1.1-4.8-1.5-7.4-1c-2.6,0.4-4.8,1.6-6.6,3.5c-4.2,3.9-8.2,8-12.2,12.2c-1.2,1.1-2.2,2.5-2.9,4.1
	c-0.7,1.6-1,3.2-1,4.9c0,1.7,0.3,3.4,0.9,4.9s1.6,3,2.8,4.2s2.6,2.1,4.2,2.8s3.3,1,4.9,0.9c1.7,0,3.3-0.3,4.9-1
	c1.5-0.7,2.9-1.6,4.1-2.9c4.1-3.7,8.1-7.7,11.8-11.9C756.2,287.2,757.6,284.8,758.7,282.2L758.7,282.2L758.7,282.2z M947.7,100.6
	c-2.5-3.6-5.3-7.1-8.4-10.3c-3-3.3-6.3-6.3-9.8-9.1c-4.6-3.5-9.5-6.5-14.8-8.9c-14.4-6.8-29.6-10.3-45.5-10.8
	c-16.2,0.4-31.5,4.6-45.7,12.3c-11.3,6.7-21.3,15-30.1,24.8c-13.3,13.3-26.7,26.5-39.9,39.8c-1.8,1.7-3.2,3.7-4.1,5.9
	c-0.9,2.3-1.3,4.7-1.2,7.1c0.2,2.4,0.9,4.7,2.1,6.9s2.8,4,4.8,5.4c3.2,2.4,6.8,3.4,10.7,3.1c3.9-0.2,7.3-1.8,10.2-4.5
	c6.2-5.8,37.3-36.2,46.3-45.2c47,46.5,81.3,80.9,89.6,89.4c5.8,5.9,11,11.4,11,11.4c3.7,3.9,7.5,7.9,11.4,12
	c2.7-3.4,5.7-6.7,8.5-10.2c2.9-3.5,5.6-7.2,8.1-11c8.6-13.7,13.7-28.7,15.2-44.9c1.1-17.8-2.6-34.5-11-50.3
	C953.1,109,950.6,104.7,947.7,100.6L947.7,100.6z M822.4,137.1c-13,12.6-33.1,32.4-38.1,36.8c-2.9,2.4-6.2,4.2-9.8,5.5
	c-3.6,1.2-7.3,1.7-11.1,1.6s-7.4-1-10.9-2.5c-3.5-1.5-6.6-3.6-9.3-6.2c-2.7-2.6-4.9-5.7-6.4-9.1c-1.6-3.4-2.5-7.1-2.7-10.9
	s0.3-7.5,1.5-11.1c1.2-3.6,3-6.9,5.4-9.8c4-4.7,8.5-8.9,12.8-13.3c10.9-10.9,21.8-21.8,32.9-32.9c-6.1-5.5-12.8-10.1-20.2-13.8
	c-7.3-3.7-15-6.4-23.1-8.1c-8-1.7-16.1-2.2-24.3-1.8c-8.2,0.5-16.2,2.1-24,4.6c-39.1,13.3-61.8,41.2-66.4,82.3
	c-1.6,13.4-0.3,26.5,4,39.3c4.3,12.8,11.1,24.1,20.3,33.8c6.3-5.8,12.2-11.2,18.1-16.5c1.5-1.5,3.2-2.8,5.1-3.8
	c1.8-1.1,3.8-1.9,5.8-2.5c2.1-0.6,4.1-0.9,6.3-1c2.1-0.1,4.2,0.1,6.3,0.5c2.1,0.4,4.1,1.1,6,2c1.9,0.9,3.7,2,5.4,3.4
	c1.7,1.3,3.2,2.8,4.5,4.5s2.4,3.5,3.3,5.5c1.5,3.9,2.6,7.9,3.4,12c16.9,1.5,26,10.9,27.6,27.9c17.3,1.6,26.6,10.9,28,27.9
	c0.5,0.2,1,0.3,1.5,0.4c2.1,0,4.1,0.3,6.1,0.9c2,0.5,3.9,1.2,5.8,2.2s3.5,2.1,5.1,3.5c1.5,1.3,2.9,2.8,4.2,4.5
	c1.2,1.7,2.2,3.5,3,5.3c0.8,1.9,1.4,3.9,1.8,5.9c0.4,2.1,0.5,4.1,0.4,6.1c-0.1,2.1-0.4,4.1-1,6.1c-0.2,1.2,0,2.4,0.8,3.4
	c5,5.1,10,10.2,15.3,15c2.2,1.8,4.8,2.6,7.6,2.6c2.8,0,5.4-0.9,7.6-2.7c1.5-1.2,2.7-2.6,3.6-4.4c0.9-1.7,1.3-3.5,1.3-5.5
	c0-2-0.3-3.8-1.2-5.5c-0.8-1.7-2-3.2-3.5-4.5c-12.6-12.6-25.2-25.1-37.8-37.7c-0.6-0.5-1-1.1-1.5-1.8l-21.8-21.9c-1.3-1.3-2-3-2-4.8
	c0-1.9,0.7-3.4,2-4.8c1.3-1.3,2.9-2,4.8-2s3.5,0.6,4.8,1.9l22,22c0.6,0.4,1.2,0.9,1.7,1.3c4,3.8,8,7.5,11.8,11.4c9,9,18,18,27.2,27
	c1.2,1.2,2.7,2.2,4.4,2.9c1.6,0.7,3.3,1,5.1,0.9c1.8,0,3.5-0.5,5.1-1.2c1.6-0.8,3-1.9,4.1-3.3c2.2-2.7,3.2-5.8,2.9-9.2
	c-0.3-3.5-1.7-6.3-4.3-8.6c-12.8-12.9-25.8-25.8-38.7-38.6c-6.2-6.1-12.4-12.2-18.4-18.5c-1.4-1.3-2.2-2.9-2.2-4.9s0.7-3.6,2.1-4.9
	c1.3-1.3,3-2,4.9-2.1c2-0.1,3.6,0.6,5,1.9c0.9,0.7,1.6,1.5,2.4,2.3c18.3,18.2,36.5,36.4,54.9,54.5c2,2,4.4,3.4,7,4.1
	c2.7,0.7,5.3,0.5,7.8-0.6s4.5-2.9,5.8-5.3c1.4-2.5,1.9-5.1,1.5-7.9c-0.4-2.8-1.6-5.2-3.6-7.2c-14-14.1-28.1-28.1-42.2-42.2
	c-5-5-10.2-10-15.2-15.1c-1.5-1.3-2.3-3-2.4-5c-0.1-2,0.5-3.7,1.8-5.3c1.5-1.4,3.3-2.1,5.3-2.1c2.1,0.1,3.8,0.8,5.3,2.3
	c0.7,0.5,1.2,1.2,1.8,1.8c18.1,18.1,36.3,36.2,54.5,54.3c1.8,2.1,4,3.5,6.6,4.3s5.3,0.7,7.8-0.1l0.4-0.1c1-0.4,2-1,2.9-1.6
	c0.9-0.7,1.7-1.4,2.3-2.3c0.7-0.9,1.2-1.8,1.7-2.8c0.5-1.1,0.8-2.1,0.9-3.2c0.2-1.1,0.2-2.1,0.1-3.3c-0.1-1.1-0.4-2.2-0.8-3.2
	c-0.4-1.1-0.9-2-1.6-2.9c-0.6-0.9-1.4-1.7-2.2-2.4C895,209.5,848.6,163.2,822.4,137.1L822.4,137.1z"/>
<path class="st0" d="M1094,160.8c20.8-28.1,54.9-46.8,90.2-46.4c36-1.3,71.9,17,92.2,46.8c26.7,38.3,33.5,86.5,34.2,132.2
	c-0.1,38.8-6,80.5-30.6,112c-17.8,23.3-47,33.8-75,38.8c-62.6,9.9-126.2,8-189.4,8.3c-150.8-0.2-301.6,0.3-452.4-0.1
	c-46.8,0.2-94.3-7.9-136.5-28.8c-46.4,22.5-98.8,30.1-150,28.1c-24.8-1.7-51.9-5.3-71.1-22.8c-15.9-14.6-21.3-36.7-24.7-57.2
	c-7.6,15.7-17.7,31.1-33.5,39.4c-23.5,12.5-51.8,12-77.2,5.9c-26.1-6.3-50.7-24-59.6-50.1C-1.6,330.2,6.1,288,29.4,257.5
	c23.6-31.6,59.2-51.2,94.9-65.9c16.3-6.9,33.4-11.6,50.2-16.6c2.9-10.4-1.9-23,4-32.7c10.7-10.9,27.6-11.9,42-10.9
	c5.7,0.4,14.5,2.4,14.2,9.7c0.4,65.2,0,130.3,0.4,195.5c0.1,14.1,3.8,30,16.2,38.4c16.1,10.7,36.3,9,54.8,9.1
	c18.3,0.3,36.4-2.5,54.4-5.6c-25.6-23.8-43-57.5-43.3-92.9c-2-34.9,9-71.5,34.5-96.2c39.8-36.9,106.9-39.1,148.9-4.8
	c21.5,17.5,33.3,44.2,37.6,71.2c5.7,33.9-1.7,70.1-21.4,98.3c-5.5,8.6-12.8,15.8-19.3,23.7c20.7,4.1,41.8,6.2,63,6.4
	c63.3,1,126.6,0.2,189.9,0.7c47.3-1.3,94.6,0.5,141.9-0.5c39.2,1.3,78.5-0.6,117.7,0.5c62.6-1.6,125.8,2.3,188-7.5
	c15.8-3,33.7-6.2,44.2-19.7c11.9-15.9,14.9-36.6,14.6-56c-6.6,8.5-11.9,18.1-20.5,24.7c-21.8,17.8-51.7,21.8-79,19
	c-24.5-3-49.3-12.7-65.9-31.5c-16.2-18.8-23.5-44.1-23.5-68.6C1067.6,215.3,1075.6,184.7,1094,160.8L1094,160.8L1094,160.8z
	 M1122,222.7c-4.1,16.9-2.3,37,10.7,49.8c15.2,15.9,39,18.4,59.8,15.9c22-3.3,43.8-10.7,62.2-23.5c-4.3-21.6-8.7-44.2-22.1-62.4
	c-14.8-20.5-42.9-29.9-67-22.8C1145,185.3,1127.3,201.9,1122,222.7L1122,222.7L1122,222.7z M71.6,281.4c-9.8,11.9-17,28.5-11.7,43.9
	c4.4,12.7,16.4,21.1,29,24.5c29.4,8,61.3,0.4,86.5-15.9c-1-36.2-0.3-72.4-0.2-108.6C137.8,237,98.3,251.2,71.6,281.4L71.6,281.4
	L71.6,281.4z M385.8,242.2c-18.4,17.7-23,48-10.5,70.3c11.6,20.6,32.4,33.7,52,45.9c21.6-10.7,44.8-23.2,55.5-46
	c10.7-22.6,6.6-51.5-11-69.4C449.6,220.2,408.4,219.4,385.8,242.2L385.8,242.2L385.8,242.2z"/>
<path class="st0" d="M1423.6,217.6c9.1-3.3,20.9-3.6,27.6,4.4c5.8,7.5,8.2,16.8,11.7,25.5c20.1,53,32.8,109.7,29.4,166.6
	c-3.4,46.1-19,93.7-53.2,126.3c-34.6,34.2-90.2,42.2-134.3,23.2c-8-3.8-17.5-8.5-19.3-18.1c-1.1-12.7,2.3-25.5,7.8-36.8
	c2.5-3.9,5.2-10.3,11-8.2c22.8,5.9,47.7,9.2,70.2,0.3c31-11.1,52.3-40,61.3-70.8c7.3-24.3,5.5-50.5-1.3-74.7
	c-8.8-37.2-27-71.1-39.2-107.2C1393.8,232.3,1410.9,222.7,1423.6,217.6L1423.6,217.6L1423.6,217.6z"/>
<path class="st0" d="M1371.1,667.9c38-10.8,75.7-22.6,113.7-33.2c5.9,9,1.7,19.9-2.9,28.5c-2.9,5.1-9.2,5.9-14.2,7.7
	c-37.7,10.5-74.8,23.4-112.7,33.3C1348.4,691.2,1355.7,670.8,1371.1,667.9L1371.1,667.9L1371.1,667.9z"/>
<g>
	<g>
		<g>
			<g transform="translate(1.123247, 30.99349)">
				<g>
					<path class="st0" d="M20.7,625.2c-3.4,0-6.1-1-8-2.9c-1.9-2-2.8-4.7-2.8-8.2v-97.9c0-3.6,0.9-6.2,2.8-8.1
						c1.9-1.8,4.7-2.8,8.1-2.8h40.5c13,0,23.1,3.1,30.1,9.3c7.1,6.2,10.6,14.9,10.6,26.1c0,7.3-1.6,13.6-4.8,18.9
						c-3.2,5.2-7.8,9.3-13.9,12.1c-6,2.8-13.4,4.2-22,4.2l1.6-2.5h5.5c4.6,0,8.6,1.1,12,3.4c3.4,2.2,6.5,5.8,9.1,10.6l12.6,23.4
						c1.4,2.4,2,4.7,1.9,6.9c-0.1,2.2-1,4.1-2.6,5.5c-1.6,1.4-3.8,2.1-6.8,2.1c-3.1,0-5.5-0.6-7.4-1.9c-1.9-1.3-3.6-3.3-5.1-6
						l-17-31.3c-2-3.8-4.4-6.3-7.2-7.6c-2.8-1.3-6.3-2-10.5-2H31.5v37.7c0,3.4-0.9,6.2-2.7,8.2C27.1,624.2,24.4,625.2,20.7,625.2z
						 M31.5,560.4h26.2c7.8,0,13.6-1.6,17.6-4.7c4-3.2,5.9-8,5.9-14.4c0-6.2-2-11-5.9-14.1c-4-3.2-9.8-4.8-17.6-4.8H31.5V560.4z"/>
				</g>
			</g>
		</g>
		<g>
			<g transform="translate(22.030884, 30.99349)">
				<g>
					<path class="st0" d="M112.9,625.1c-3.4,0-6-1-7.8-3c-1.8-2.1-2.7-4.9-2.7-8.4v-61.7c0-3.7,0.9-6.5,2.7-8.4c1.8-2,4.4-3,7.8-3
						c3.3,0,5.9,1,7.8,3c1.9,2,2.8,4.8,2.8,8.4v61.7c0,3.6-0.9,6.4-2.8,8.4C118.9,624,116.3,625.1,112.9,625.1z M112.9,524.8
						c-4,0-7-1-9.2-2.9c-2.2-1.9-3.3-4.7-3.3-8.2c0-3.6,1.1-6.3,3.3-8.2c2.2-1.9,5.3-2.9,9.2-2.9c4,0,7.1,1,9.2,2.9
						c2.1,1.9,3.2,4.6,3.2,8.2c0,3.5-1.1,6.2-3.2,8.2C119.9,523.8,116.9,524.8,112.9,524.8z"/>
				</g>
			</g>
		</g>
		<g>
			<g transform="translate(29.802672, 30.99349)">
				<g>
					<path class="st0" d="M153.6,625.2c-3.3,0-5.9-0.9-7.8-2.8c-1.9-1.9-2.8-4.6-2.8-8v-57.1h-7.8c-2.7,0-4.7-0.7-6.2-2.1
						c-1.4-1.4-2.2-3.3-2.2-5.8c0-2.6,0.7-4.5,2.2-5.9c1.5-1.4,3.6-2.1,6.2-2.1h13.8l-6,5.5v-5.7c0-11.6,2.9-20.2,8.7-25.9
						c5.9-5.8,14.3-9.2,25.3-10.2l5.8-0.5c2.2-0.2,4,0.2,5.3,1.1c1.3,0.9,2.2,2.2,2.7,3.7c0.5,1.5,0.5,3,0.2,4.6s-1.1,2.9-2.2,4.1
						c-1,1.2-2.4,1.8-4.1,1.9l-2.3,0.2c-6.4,0.5-11,2.1-14,4.9c-2.9,2.8-4.4,7-4.4,12.8v6.2l-2.7-2.7h17c2.7,0,4.8,0.7,6.2,2.1
						c1.4,1.3,2.2,3.3,2.2,5.9c0,2.5-0.7,4.4-2.2,5.8c-1.4,1.4-3.5,2.1-6.2,2.1h-14.3v57.1C164.1,621.6,160.6,625.2,153.6,625.2z"/>
				</g>
			</g>
		</g>
		<g>
			<g transform="translate(40.500249, 30.99349)">
				<g>
					<path class="st0" d="M254.3,655.5c-3.4,0-6-0.9-7.8-2.8c-1.8-1.8-2.7-4.4-2.7-7.8V607h1.8c-1.8,5.5-5.2,9.9-10.3,13.4
						c-5.1,3.4-11,5.2-17.8,5.2c-7.2,0-13.5-1.7-19-5.2c-5.5-3.5-9.7-8.5-12.8-14.9c-3-6.5-4.5-14.1-4.5-22.8
						c0-8.8,1.5-16.4,4.5-22.8c3-6.4,7.3-11.3,12.8-14.7c5.5-3.5,11.8-5.3,19-5.3c6.9,0,13,1.8,18.1,5.3c5.2,3.4,8.6,8.1,10.3,13.8
						l-1.8,5v-13.1c0-3.4,0.9-6.1,2.7-7.8c1.8-1.8,4.4-2.8,7.8-2.8c3.3,0,5.9,0.9,7.7,2.8c1.8,1.8,2.8,4.4,2.8,7.8v94
						c0,3.4-0.9,6.1-2.8,7.8C260.2,654.6,257.6,655.5,254.3,655.5z M223.3,609.5c4.1,0,7.8-1,10.9-3c3.1-2,5.6-5,7.3-9
						c1.8-4,2.7-9,2.7-14.9c0-9-1.9-15.6-5.8-20.1c-3.8-4.4-8.8-6.6-15.1-6.6c-4.1,0-7.8,1-10.9,2.9c-3.2,2-5.6,5-7.3,9
						c-1.7,4-2.6,8.9-2.6,14.8c0,8.9,1.9,15.6,5.7,20.1C212,607.3,217.1,609.5,223.3,609.5z"/>
				</g>
			</g>
		</g>
		<g>
			<g transform="translate(58.786808, 30.99349)">
				<g>
					<path class="st0" d="M295.5,625.6c-5.9,0-11.2-1.2-15.9-3.4c-4.7-2.3-8.3-5.4-10.9-9.3c-2.7-4-4-8.4-4-13.4
						c0-6,1.6-10.8,4.7-14.3c3.1-3.6,8.3-6.1,15.3-7.7c7.1-1.6,16.6-2.4,28.4-2.4h8.4v12.2h-8.2c-7,0-12.5,0.3-16.7,1
						c-4.1,0.6-7.1,1.8-8.8,3.4c-1.7,1.6-2.6,3.9-2.6,6.7c0,3.7,1.3,6.8,3.9,9.1c2.6,2.4,6.2,3.5,10.8,3.5c3.7,0,6.9-0.9,9.8-2.6
						c2.9-1.8,5.1-4.2,6.8-7.2c1.7-3,2.5-6.5,2.5-10.4v-19.4c0-5.6-1.2-9.6-3.7-12.1c-2.5-2.5-6.6-3.7-12.4-3.7
						c-3.3,0-6.8,0.4-10.6,1.2c-3.7,0.8-7.7,2.1-11.8,4c-2.1,1-4,1.3-5.6,0.9c-1.6-0.5-2.9-1.4-3.8-2.8c-0.9-1.4-1.4-2.9-1.4-4.6
						c0-1.7,0.5-3.4,1.4-5c0.9-1.7,2.4-2.9,4.6-3.6c5.1-2.1,10-3.6,14.8-4.6c4.8-0.9,9.1-1.4,13.1-1.4c8,0,14.7,1.2,19.8,3.7
						c5.2,2.5,9.1,6.2,11.7,11.2s3.9,11.4,3.9,19.3v40.3c0,3.4-0.8,6.1-2.5,8c-1.7,1.8-4.1,2.8-7.2,2.8c-3.2,0-5.6-0.9-7.3-2.8
						c-1.7-1.9-2.6-4.6-2.6-8v-8.1h1.4c-0.8,3.9-2.4,7.3-4.7,10.2c-2.3,2.9-5.2,5.1-8.7,6.7C304,624.8,300,625.6,295.5,625.6z"/>
				</g>
			</g>
		</g>
		<g>
			<g transform="translate(75.458056, 30.99349)">
			</g>
		</g>
		<g>
			<g transform="translate(83.717483, 30.99349)">
				<g>
					<path class="st0" d="M438.2,625.6c-12.3,0-22.9-2.5-31.7-7.5c-8.8-5-15.6-12.1-20.3-21.2c-4.7-9.1-7.1-19.9-7.1-32.4
						c0-9.3,1.3-17.7,4.1-25.1c2.7-7.5,6.6-13.8,11.6-19.1c5-5.3,11.2-9.4,18.5-12.3c7.3-2.9,15.6-4.3,24.8-4.3
						c6.1,0,12.2,0.8,18.1,2.4c6,1.6,11.2,3.8,15.7,6.6c2.3,1.5,3.9,3.3,4.7,5.3c0.8,2.1,1,4.1,0.5,6c-0.5,2-1.4,3.6-2.8,5
						c-1.4,1.3-3.1,2.1-5.2,2.2c-2.1,0.2-4.4-0.5-6.8-2.1c-3.4-2.2-7.2-3.9-11.3-4.9c-4-1-8.1-1.6-12.2-1.6c-8,0-14.7,1.6-20.3,4.9
						c-5.5,3.3-9.6,8-12.4,14.1c-2.8,6.2-4.1,13.7-4.1,22.7c0,8.9,1.4,16.4,4.1,22.8c2.8,6.3,6.9,11,12.4,14.3
						c5.5,3.2,12.3,4.8,20.3,4.8c4.2,0,8.4-0.5,12.6-1.6c4.1-1.1,8.1-2.8,11.8-5c2.5-1.4,4.7-2.1,6.6-1.9c1.9,0.1,3.6,0.8,4.9,2.1
						c1.4,1.2,2.3,2.8,2.7,4.7c0.5,1.9,0.3,3.7-0.3,5.7c-0.6,2-2,3.7-4,5.1c-4.5,3.3-9.9,5.8-16.1,7.6
						C450.9,624.7,444.6,625.6,438.2,625.6z"/>
				</g>
			</g>
		</g>
		<g>
			<g transform="translate(103.375387, 30.99349)">
				<g>
					<path class="st0" d="M507.3,625.6c-8.5,0-15.9-1.7-22.2-5.2c-6.3-3.5-11.2-8.5-14.7-14.9c-3.4-6.5-5.2-14.1-5.2-22.8
						c0-6.6,1-12.5,2.9-17.8c1.9-5.2,4.8-9.7,8.4-13.4c3.7-3.7,8.2-6.6,13.4-8.5c5.2-2,10.9-3,17.3-3c8.5,0,15.9,1.8,22.2,5.3
						c6.3,3.4,11.2,8.4,14.7,14.8c3.5,6.4,5.3,13.9,5.3,22.7c0,6.6-1,12.6-3,17.8c-2,5.3-4.8,9.8-8.4,13.5
						c-3.7,3.7-8.1,6.6-13.3,8.6C519.5,624.6,513.7,625.6,507.3,625.6z M507.3,609.5c4.1,0,7.8-1,10.9-3c3.1-2,5.6-5,7.3-9
						c1.8-4,2.7-9,2.7-14.9c0-9-1.9-15.6-5.8-20.1c-3.8-4.4-8.8-6.6-15.1-6.6c-4.1,0-7.8,1-10.9,2.9c-3.2,2-5.6,5-7.3,9
						c-1.7,4-2.6,8.9-2.6,14.8c0,8.9,1.9,15.6,5.7,20.1C496,607.3,501.1,609.5,507.3,609.5z"/>
				</g>
			</g>
		</g>
		<g>
			<g transform="translate(120.930488, 30.99349)">
				<g>
					<path class="st0" d="M559.9,625.2c-3.4,0-6-0.9-7.8-2.8c-1.8-1.9-2.7-4.6-2.7-8v-63.6c0-3.4,0.9-6.1,2.7-7.8
						c1.8-1.8,4.3-2.8,7.6-2.8c3.2,0,5.7,0.9,7.5,2.8c1.8,1.8,2.8,4.4,2.8,7.8v12.3l-1.9-5.1c2.2-5.6,5.7-10,10.4-13.3
						c4.7-3.3,10.3-4.9,16.8-4.9c6.6,0,12,1.6,16.3,4.7c4.3,3.2,7.3,8,9,14.5h-2.3c2.2-6,5.9-10.6,11-14.1
						c5.2-3.4,11.1-5.2,17.8-5.2c6.3,0,11.5,1.2,15.6,3.7c4.1,2.5,7.1,6.2,9.1,11.2c2,5,3,11.3,3,19v40.7c0,3.4-0.9,6.1-2.8,8
						c-1.9,1.8-4.5,2.8-7.8,2.8c-3.3,0-5.9-0.9-7.8-2.8c-1.8-1.9-2.7-4.6-2.7-8v-39.9c0-6.2-1-10.8-3.1-13.7
						c-2.1-2.9-5.6-4.4-10.5-4.4c-5.5,0-9.8,1.9-12.9,5.8c-3.2,3.9-4.7,9.2-4.7,16v36.2c0,3.4-0.9,6.1-2.7,8
						c-1.8,1.8-4.4,2.8-7.8,2.8c-3.3,0-5.9-0.9-7.8-2.8c-1.9-1.9-2.8-4.6-2.8-8v-39.9c0-6.2-1.1-10.8-3.2-13.7
						c-2.1-2.9-5.5-4.4-10.3-4.4c-5.5,0-9.8,1.9-12.9,5.8c-3.1,3.9-4.7,9.2-4.7,16v36.2C570.5,621.6,567,625.2,559.9,625.2z"/>
				</g>
			</g>
		</g>
		<g>
			<g transform="translate(147.659347, 30.99349)">
				<g>
					<path class="st0" d="M680.3,655.5c-3.4,0-6-0.9-7.8-2.8c-1.8-1.8-2.7-4.4-2.7-7.8v-94c0-3.4,0.9-6.1,2.7-7.8
						c1.8-1.8,4.3-2.8,7.6-2.8c3.3,0,5.9,0.9,7.7,2.8c1.8,1.8,2.8,4.4,2.8,7.8v13.1l-1.9-5c1.7-5.7,5.2-10.3,10.3-13.8
						c5.2-3.5,11.3-5.3,18.3-5.3c7.2,0,13.5,1.8,18.9,5.3c5.5,3.4,9.7,8.4,12.7,14.7c3,6.3,4.6,13.9,4.6,22.8
						c0,8.7-1.5,16.4-4.6,22.8c-3,6.4-7.2,11.4-12.6,14.9c-5.3,3.4-11.7,5.2-19,5.2c-6.9,0-12.8-1.7-18-5.2
						c-5.2-3.4-8.7-7.9-10.4-13.4h2.1v37.8c0,3.4-0.9,6.1-2.8,7.8C686.2,654.6,683.6,655.5,680.3,655.5z M711.4,609.5
						c4.1,0,7.8-1,10.9-3c3.1-2,5.6-5,7.3-9c1.8-4,2.7-9,2.7-14.9c0-9-1.9-15.6-5.8-20.1c-3.8-4.4-8.8-6.6-15.1-6.6
						c-4.1,0-7.8,1-10.9,2.9c-3.2,2-5.6,5-7.3,9c-1.7,4-2.6,8.9-2.6,14.8c0,8.9,1.9,15.6,5.7,20.1
						C700,607.3,705.1,609.5,711.4,609.5z"/>
				</g>
			</g>
		</g>
		<g>
			<g transform="translate(165.945905, 30.99349)">
				<g>
					<path class="st0" d="M779.5,625.6c-5.9,0-11.2-1.2-15.9-3.4c-4.7-2.3-8.3-5.4-10.9-9.3c-2.7-4-4-8.4-4-13.4
						c0-6,1.6-10.8,4.7-14.3c3.1-3.6,8.3-6.1,15.3-7.7c7.1-1.6,16.6-2.4,28.4-2.4h8.4v12.2h-8.2c-7,0-12.5,0.3-16.7,1
						c-4.1,0.6-7.1,1.8-8.8,3.4c-1.7,1.6-2.6,3.9-2.6,6.7c0,3.7,1.3,6.8,3.9,9.1c2.6,2.4,6.2,3.5,10.8,3.5c3.7,0,6.9-0.9,9.8-2.6
						c2.9-1.8,5.1-4.2,6.8-7.2c1.7-3,2.5-6.5,2.5-10.4v-19.4c0-5.6-1.2-9.6-3.7-12.1c-2.5-2.5-6.6-3.7-12.4-3.7
						c-3.3,0-6.8,0.4-10.6,1.2c-3.7,0.8-7.7,2.1-11.8,4c-2.1,1-4,1.3-5.6,0.9c-1.6-0.5-2.9-1.4-3.8-2.8c-0.9-1.4-1.4-2.9-1.4-4.6
						c0-1.7,0.5-3.4,1.4-5c0.9-1.7,2.4-2.9,4.6-3.6c5.1-2.1,10-3.6,14.8-4.6c4.8-0.9,9.1-1.4,13.1-1.4c8,0,14.7,1.2,19.8,3.7
						c5.2,2.5,9.1,6.2,11.7,11.2s3.9,11.4,3.9,19.3v40.3c0,3.4-0.8,6.1-2.5,8c-1.7,1.8-4.1,2.8-7.2,2.8c-3.2,0-5.6-0.9-7.3-2.8
						c-1.7-1.9-2.6-4.6-2.6-8v-8.1h1.4c-0.8,3.9-2.4,7.3-4.7,10.2c-2.3,2.9-5.2,5.1-8.7,6.7C788,624.8,784,625.6,779.5,625.6z"/>
				</g>
			</g>
		</g>
		<g>
			<g transform="translate(182.617154, 30.99349)">
				<g>
					<path class="st0" d="M838.2,625.2c-3.4,0-6-0.9-7.8-2.8c-1.8-1.9-2.7-4.6-2.7-8v-63.6c0-3.4,0.9-6.1,2.7-7.8
						c1.8-1.8,4.3-2.8,7.6-2.8c3.2,0,5.7,0.9,7.5,2.8c1.8,1.8,2.8,4.4,2.8,7.8v11.5l-1.9-4.2c2.5-5.9,6.3-10.4,11.6-13.5
						c5.2-3.1,11.1-4.7,17.8-4.7c6.6,0,12,1.2,16.3,3.7c4.2,2.5,7.4,6.2,9.6,11.2c2.1,5,3.2,11.3,3.2,19v40.7c0,3.4-0.9,6.1-2.7,8
						c-1.8,1.8-4.4,2.8-7.8,2.8c-3.3,0-5.9-0.9-7.8-2.8c-1.9-1.9-2.8-4.6-2.8-8v-39.7c0-6.4-1.2-11-3.6-13.9
						c-2.4-2.9-6.1-4.4-11.1-4.4c-6.2,0-11.1,1.9-14.7,5.8c-3.6,3.9-5.4,9-5.4,15.3v36.9C848.8,621.6,845.3,625.2,838.2,625.2z"/>
				</g>
			</g>
		</g>
		<g>
			<g transform="translate(200.294136, 30.99349)">
				<g>
					<path class="st0" d="M928.5,655.5c-2.5,0-4.5-0.7-6.1-2c-1.6-1.3-2.5-3-2.8-5.1c-0.3-2.1,0.1-4.4,1.1-6.7l11.5-25.4v8.8
						l-30.6-70.9c-1-2.5-1.4-4.8-1-6.9c0.3-2.1,1.4-3.8,3.1-5.1c1.7-1.3,4.1-2,7.2-2c2.6,0,4.7,0.6,6.2,1.8c1.6,1.2,3,3.4,4.2,6.6
						l22.7,56.6h-5l23.2-56.8c1.2-3.1,2.6-5.3,4.3-6.5c1.7-1.2,4-1.8,6.8-1.8c2.5,0,4.4,0.7,5.9,2c1.4,1.3,2.3,2.9,2.7,5
						c0.3,2.1,0,4.4-1.1,6.8l-40.9,93.4c-1.4,3.1-3,5.3-4.7,6.4C933.3,654.9,931.2,655.5,928.5,655.5z"/>
				</g>
			</g>
		</g>
	</g>
</g>
</svg>

